<?xml version="1.0" encoding="utf-8"?>
<!-- Generator: Adobe Illustrator 21.0.2, SVG Export Plug-In . SVG Version: 6.00 Build 0)  -->
<svg version="1.1" id="Layer_1" xmlns="http://www.w3.org/2000/svg" xmlns:xlink="http://www.w3.org/1999/xlink" x="0px" y="0px"
	 viewBox="0 0 86.7 142.1" style="enable-background:new 0 0 86.7 142.1;" xml:space="preserve">
<style type="text/css">
	.st0{fill:#262635;}
</style>
<path class="st0" d="M78.7,19.3C71.5,3.2,47.9-0.6,31.3,7.9c0,0-13.5,7.2-18.2,9.5c-5.9,3.3-11.2,12-11.2,19V48v12.6v46.1
	c0-8.3,5-14.9,12.4-18.9c0,0,42.8-22.3,42.9-22.3C73.8,56.9,86.3,35.9,78.7,19.3 M27.5,77V41.7c7.4-3.5,10.1-4.8,10.1-4.8
	c5.1-2.6,17.2-0.9,17.2,9.1C54.9,64.2,37.3,71.4,27.5,77"/>
<path class="st0" d="M27.5,84.6c-7.5,3.5-6.8,3-13.4,6.5C7.6,94.7,2,102.3,2,109.3c0,17.6,23.7,27.5,25.5,28.2V84.6z"/>
</svg>
