<?xml version="1.0" encoding="utf-8"?>
<!-- Generator: Adobe Illustrator 21.0.2, SVG Export Plug-In . SVG Version: 6.00 Build 0)  -->
<svg version="1.1" id="Layer_1" xmlns="http://www.w3.org/2000/svg" xmlns:xlink="http://www.w3.org/1999/xlink" x="0px" y="0px"
	 viewBox="0 0 242.7 142.1" style="enable-background:new 0 0 242.7 142.1;" xml:space="preserve">
<style type="text/css">
	.st0{fill:#262635;}
</style>
<path class="st0" d="M78.7,19.3C71.5,3.2,47.9-0.6,31.3,7.9c0,0-13.5,7.2-18.2,9.5c-5.9,3.3-11.2,12-11.2,19V48v12.6v46.1
	c0-8.3,5-14.9,12.4-18.9c0,0,42.8-22.3,42.9-22.3C73.8,56.9,86.3,35.9,78.7,19.3 M27.5,77V41.7c7.4-3.5,10.1-4.8,10.1-4.8
	c5.1-2.6,17.2-0.9,17.2,9.1C54.9,64.2,37.3,71.4,27.5,77"/>
<path class="st0" d="M27.5,84.6c-7.5,3.5-6.8,3-13.4,6.5C7.6,94.7,2,102.3,2,109.3c0,17.6,23.7,27.5,25.5,28.2V84.6z"/>
<g>
	<path class="st0" d="M63,119.1v9h-7.1v-32c5.1,0,10,0,15.1,0c8.2,0,12.2,5.3,12.2,11.5c0,6.4-4.1,11.4-12.2,11.5H63z M63,112.5h8
		c3.4,0,5.1-2.2,5.1-4.8c0-2.6-1.7-4.8-5.1-4.8h-8V112.5z"/>
	<path class="st0" d="M117.3,128.1h-7.9l-8.2-10.5h-5.2v10.5h-7.1v-32c5.2,0,10,0,15.2,0c7.7,0,11.8,5.2,11.8,10.8
		c0,4.2-1.3,7.9-7.4,10.1l8.8,10.6V128.1z M96.1,102.3v9.3h8.1c3.3,0,4.7-2.5,4.7-4.5c0-2.2-1.5-4.8-4.8-4.8H96.1z"/>
	<path class="st0" d="M147.6,128.1h-24.4c0-10.6,0-21.3,0-32h23.7v6.5h-16.7v6.2H146v6.3h-15.8v6.4h17.4V128.1z"/>
	<path class="st0" d="M182.2,105.9l-9.9,12.4H171l-9.6-12.5v22.3h-7.1v-32c2.7,0,5.5,0,8.2,0l9.3,12.3l9.4-12.3h8.1v32h-7.1V105.9z"
		/>
	<path class="st0" d="M197.6,128.1v-32h7.1v32H197.6z"/>
	<path class="st0" d="M231.9,103.9c-1.8-1.9-4.9-2.7-7.4-2.7c-3.2,0-5.7,1.3-5.7,3.5c0,2.9,2.8,3.5,6.9,3.8
		c6.3,0.5,12.3,3,12.3,10.4c0,7.1-6.6,10.2-13.5,10.3c-5.5,0-11.3-2.1-14-6.6l4.2-4.4c2.5,3.2,6.5,4.5,9.8,4.5
		c3.8,0,6.4-1.5,6.4-3.8c0-2.7-2.1-3.9-6.4-4.3c-6.8-0.6-12.8-2.3-12.7-9.9c0-6.4,6.1-9.7,12.7-9.7c4.9,0,8.6,1.1,11.9,4.9
		L231.9,103.9z"/>
</g>
</svg>
